<svg viewBox="0 0 1620 880" xmlns="http://www.w3.org/2000/svg" font-family="Inter, -apple-system, 'Segoe UI', Helvetica, Arial, sans-serif">
  <!-- ========================================================== -->
  <!-- AI Claims Agent Workbench — High-Level System Architecture  -->
  <!-- Layers (top → bottom):                                       -->
  <!--   1) Adjuster Workbench (UI / human-in-the-loop)             -->
  <!--   2) Orchestrator (event-driven coordination spine)          -->
  <!--   3) Agentic Suite (12 purpose-built agents, 6 stages)       -->
  <!--   4) Integration Gateway (single audited boundary)           -->
  <!--   5) Existing Carrier Stack (no replacement required)        -->
  <!-- ========================================================== -->

  <defs>
    <marker id="arrowDown" viewBox="0 0 10 10" refX="5" refY="9" markerWidth="7" markerHeight="7" orient="auto">
      <path d="M 0 0 L 5 9 L 10 0 z" fill="#64748B"/>
    </marker>
    <marker id="arrowUp" viewBox="0 0 10 10" refX="5" refY="1" markerWidth="7" markerHeight="7" orient="auto">
      <path d="M 0 10 L 5 1 L 10 10 z" fill="#64748B"/>
    </marker>
  </defs>

  <!-- =================== LAYER 1: ADJUSTER WORKBENCH =================== -->
  <g id="layer-workbench">
    <rect x="40" y="30" width="1320" height="140" rx="10" fill="#E8F0FA" stroke="#2C7BE5" stroke-width="1.5"/>

    <!-- Layer index -->
    <circle cx="78" cy="62" r="16" fill="#2C7BE5"/>
    <text x="78" y="68" text-anchor="middle" font-size="15" font-weight="700" fill="#FFFFFF">1</text>

    <!-- Layer title -->
    <text x="106" y="58" font-size="17" font-weight="700" fill="#1F3A5F" letter-spacing="0.3">ADJUSTER WORKBENCH</text>
    <text x="106" y="77" font-size="12" fill="#475569">One screen surfaces every signal — the adjuster reviews and decides. Human-in-the-loop by design.</text>

    <!-- 5 surface tiles -->
    <g transform="translate(64, 100)">
      <g>
        <rect x="0" y="0" width="245" height="55" rx="6" fill="#FFFFFF" stroke="#BCD2EC" stroke-width="1"/>
        <text x="122" y="24" text-anchor="middle" font-size="12" font-weight="600" fill="#1F3A5F">Coverage Analysis</text>
        <text x="122" y="42" text-anchor="middle" font-size="10" fill="#64748B">policy match · exclusions · limits</text>
      </g>
      <g transform="translate(255, 0)">
        <rect x="0" y="0" width="245" height="55" rx="6" fill="#FFFFFF" stroke="#BCD2EC" stroke-width="1"/>
        <text x="122" y="24" text-anchor="middle" font-size="12" font-weight="600" fill="#1F3A5F">Document Summaries</text>
        <text x="122" y="42" text-anchor="middle" font-size="10" fill="#64748B">extracted facts · key dates · gaps</text>
      </g>
      <g transform="translate(510, 0)">
        <rect x="0" y="0" width="245" height="55" rx="6" fill="#FFFFFF" stroke="#BCD2EC" stroke-width="1"/>
        <text x="122" y="24" text-anchor="middle" font-size="12" font-weight="600" fill="#1F3A5F">Fraud Signals</text>
        <text x="122" y="42" text-anchor="middle" font-size="10" fill="#64748B">risk score · indicators · referrals</text>
      </g>
      <g transform="translate(765, 0)">
        <rect x="0" y="0" width="245" height="55" rx="6" fill="#FFFFFF" stroke="#BCD2EC" stroke-width="1"/>
        <text x="122" y="24" text-anchor="middle" font-size="12" font-weight="600" fill="#1F3A5F">Compliance Deadlines</text>
        <text x="122" y="42" text-anchor="middle" font-size="10" fill="#64748B">jurisdictional clock · alerts</text>
      </g>
      <g transform="translate(1020, 0)">
        <rect x="0" y="0" width="245" height="55" rx="6" fill="#FFFFFF" stroke="#BCD2EC" stroke-width="1"/>
        <text x="122" y="24" text-anchor="middle" font-size="12" font-weight="600" fill="#1F3A5F">Reserve Recommendations</text>
        <text x="122" y="42" text-anchor="middle" font-size="10" fill="#64748B">severity · benchmark · range</text>
      </g>
    </g>
  </g>

  <!-- Connector: Workbench ↔ Orchestrator -->
  <g>
    <line x1="700" y1="172" x2="700" y2="193" stroke="#64748B" stroke-width="1.5" marker-end="url(#arrowDown)" marker-start="url(#arrowUp)"/>
    <text x="710" y="187" font-size="10" fill="#64748B" font-style="italic">events · decisions</text>
  </g>

  <!-- =================== LAYER 2: ORCHESTRATOR =================== -->
  <g id="layer-orchestrator">
    <rect x="40" y="195" width="1320" height="95" rx="10" fill="#1F3A5F"/>

    <circle cx="78" cy="227" r="16" fill="#FFFFFF"/>
    <text x="78" y="233" text-anchor="middle" font-size="15" font-weight="700" fill="#1F3A5F">2</text>

    <text x="106" y="223" font-size="17" font-weight="700" fill="#FFFFFF" letter-spacing="0.3">ORCHESTRATOR · Event-Driven Coordination Spine</text>
    <text x="106" y="245" font-size="12" fill="#C8DAEC">Receives every claim event (FNOL · document arrival · adjuster action) → activates, sequences, and parallelizes agents.</text>
    <text x="106" y="263" font-size="12" fill="#C8DAEC">Stateful per-claim context · retry &amp; fallback policies · observability hooks.</text>
    <text x="106" y="281" font-size="11" font-weight="600" fill="#7BB3F0">Generates regulatory deadline alerts across all 50 states before any window closes.</text>

    <!-- 50-state badge -->
    <g transform="translate(1140, 212)">
      <rect width="200" height="62" rx="6" fill="#2C7BE5" fill-opacity="0.22" stroke="#7BB3F0" stroke-width="1"/>
      <text x="100" y="24" text-anchor="middle" font-size="11" font-weight="700" fill="#FFFFFF" letter-spacing="0.5">50-STATE COMPLIANCE</text>
      <text x="100" y="42" text-anchor="middle" font-size="10" fill="#C8DAEC">jurisdictional deadline</text>
      <text x="100" y="55" text-anchor="middle" font-size="10" fill="#C8DAEC">alerts · pre-emptive</text>
    </g>
  </g>

  <!-- Connector: Orchestrator → Agents -->
  <g>
    <line x1="700" y1="292" x2="700" y2="313" stroke="#64748B" stroke-width="1.5" marker-end="url(#arrowDown)" marker-start="url(#arrowUp)"/>
    <text x="710" y="307" font-size="10" fill="#64748B" font-style="italic">activate · sequence</text>
  </g>

  <!-- =================== LAYER 3: AGENTIC SUITE =================== -->
  <g id="layer-agents">
    <rect x="40" y="315" width="1320" height="255" rx="10" fill="#F2F6FB" stroke="#CBD5E1" stroke-width="1"/>

    <circle cx="78" cy="347" r="16" fill="#3D6FA8"/>
    <text x="78" y="353" text-anchor="middle" font-size="15" font-weight="700" fill="#FFFFFF">3</text>

    <text x="106" y="343" font-size="17" font-weight="700" fill="#1F3A5F" letter-spacing="0.3">AGENTIC SUITE · 12 Purpose-Built Agents</text>
    <text x="106" y="362" font-size="12" fill="#475569">Independently deployable · each with a defined job in the claims lifecycle · no shared brain · loosely coupled.</text>

    <!-- 6 category columns, 2 agent tiles each = 12 total -->
    <!-- Column positions: 70, 280, 490, 700, 910, 1120 (width 210 each) -->

    <!-- Column 1: INTAKE -->
    <g transform="translate(70, 390)">
      <text x="105" y="14" text-anchor="middle" font-size="10.5" font-weight="700" fill="#3D6FA8" letter-spacing="1.2">INTAKE</text>
      <line x1="35" y1="22" x2="175" y2="22" stroke="#BCD2EC" stroke-width="1"/>
      <text x="105" y="38" text-anchor="middle" font-size="9.5" fill="#64748B">FNOL capture · triage</text>
      <!-- Agent tile 1 -->
      <g transform="translate(15, 50)">
        <rect width="85" height="105" rx="6" fill="#FFFFFF" stroke="#2C7BE5" stroke-width="1.2"/>
        <circle cx="42.5" cy="32" r="14" fill="#E8F0FA" stroke="#2C7BE5" stroke-width="1"/>
        <path d="M 36 32 L 41 37 L 49 27" fill="none" stroke="#2C7BE5" stroke-width="2" stroke-linecap="round" stroke-linejoin="round"/>
        <text x="42.5" y="68" text-anchor="middle" font-size="10" font-weight="600" fill="#1F3A5F">Agent</text>
        <line x1="20" y1="78" x2="65" y2="78" stroke="#E2E8F0"/>
        <text x="42.5" y="93" text-anchor="middle" font-size="8.5" fill="#94A3B8">independently</text>
        <text x="42.5" y="102" text-anchor="middle" font-size="8.5" fill="#94A3B8">deployable</text>
      </g>
      <!-- Agent tile 2 -->
      <g transform="translate(110, 50)">
        <rect width="85" height="105" rx="6" fill="#FFFFFF" stroke="#2C7BE5" stroke-width="1.2"/>
        <circle cx="42.5" cy="32" r="14" fill="#E8F0FA" stroke="#2C7BE5" stroke-width="1"/>
        <path d="M 36 32 L 41 37 L 49 27" fill="none" stroke="#2C7BE5" stroke-width="2" stroke-linecap="round" stroke-linejoin="round"/>
        <text x="42.5" y="68" text-anchor="middle" font-size="10" font-weight="600" fill="#1F3A5F">Agent</text>
        <line x1="20" y1="78" x2="65" y2="78" stroke="#E2E8F0"/>
        <text x="42.5" y="93" text-anchor="middle" font-size="8.5" fill="#94A3B8">independently</text>
        <text x="42.5" y="102" text-anchor="middle" font-size="8.5" fill="#94A3B8">deployable</text>
      </g>
    </g>

    <!-- Column 2: COVERAGE -->
    <g transform="translate(280, 390)">
      <text x="105" y="14" text-anchor="middle" font-size="10.5" font-weight="700" fill="#3D6FA8" letter-spacing="1.2">COVERAGE</text>
      <line x1="25" y1="22" x2="185" y2="22" stroke="#BCD2EC" stroke-width="1"/>
      <text x="105" y="38" text-anchor="middle" font-size="9.5" fill="#64748B">policy match · interpretation</text>
      <g transform="translate(15, 50)">
        <rect width="85" height="105" rx="6" fill="#FFFFFF" stroke="#2C7BE5" stroke-width="1.2"/>
        <circle cx="42.5" cy="32" r="14" fill="#E8F0FA" stroke="#2C7BE5" stroke-width="1"/>
        <path d="M 36 32 L 41 37 L 49 27" fill="none" stroke="#2C7BE5" stroke-width="2" stroke-linecap="round" stroke-linejoin="round"/>
        <text x="42.5" y="68" text-anchor="middle" font-size="10" font-weight="600" fill="#1F3A5F">Agent</text>
        <line x1="20" y1="78" x2="65" y2="78" stroke="#E2E8F0"/>
        <text x="42.5" y="93" text-anchor="middle" font-size="8.5" fill="#94A3B8">independently</text>
        <text x="42.5" y="102" text-anchor="middle" font-size="8.5" fill="#94A3B8">deployable</text>
      </g>
      <g transform="translate(110, 50)">
        <rect width="85" height="105" rx="6" fill="#FFFFFF" stroke="#2C7BE5" stroke-width="1.2"/>
        <circle cx="42.5" cy="32" r="14" fill="#E8F0FA" stroke="#2C7BE5" stroke-width="1"/>
        <path d="M 36 32 L 41 37 L 49 27" fill="none" stroke="#2C7BE5" stroke-width="2" stroke-linecap="round" stroke-linejoin="round"/>
        <text x="42.5" y="68" text-anchor="middle" font-size="10" font-weight="600" fill="#1F3A5F">Agent</text>
        <line x1="20" y1="78" x2="65" y2="78" stroke="#E2E8F0"/>
        <text x="42.5" y="93" text-anchor="middle" font-size="8.5" fill="#94A3B8">independently</text>
        <text x="42.5" y="102" text-anchor="middle" font-size="8.5" fill="#94A3B8">deployable</text>
      </g>
    </g>

    <!-- Column 3: DOCUMENTATION -->
    <g transform="translate(490, 390)">
      <text x="105" y="14" text-anchor="middle" font-size="10.5" font-weight="700" fill="#3D6FA8" letter-spacing="1.2">DOCUMENTATION</text>
      <line x1="10" y1="22" x2="200" y2="22" stroke="#BCD2EC" stroke-width="1"/>
      <text x="105" y="38" text-anchor="middle" font-size="9.5" fill="#64748B">extraction · summarization</text>
      <g transform="translate(15, 50)">
        <rect width="85" height="105" rx="6" fill="#FFFFFF" stroke="#2C7BE5" stroke-width="1.2"/>
        <circle cx="42.5" cy="32" r="14" fill="#E8F0FA" stroke="#2C7BE5" stroke-width="1"/>
        <path d="M 36 32 L 41 37 L 49 27" fill="none" stroke="#2C7BE5" stroke-width="2" stroke-linecap="round" stroke-linejoin="round"/>
        <text x="42.5" y="68" text-anchor="middle" font-size="10" font-weight="600" fill="#1F3A5F">Agent</text>
        <line x1="20" y1="78" x2="65" y2="78" stroke="#E2E8F0"/>
        <text x="42.5" y="93" text-anchor="middle" font-size="8.5" fill="#94A3B8">independently</text>
        <text x="42.5" y="102" text-anchor="middle" font-size="8.5" fill="#94A3B8">deployable</text>
      </g>
      <g transform="translate(110, 50)">
        <rect width="85" height="105" rx="6" fill="#FFFFFF" stroke="#2C7BE5" stroke-width="1.2"/>
        <circle cx="42.5" cy="32" r="14" fill="#E8F0FA" stroke="#2C7BE5" stroke-width="1"/>
        <path d="M 36 32 L 41 37 L 49 27" fill="none" stroke="#2C7BE5" stroke-width="2" stroke-linecap="round" stroke-linejoin="round"/>
        <text x="42.5" y="68" text-anchor="middle" font-size="10" font-weight="600" fill="#1F3A5F">Agent</text>
        <line x1="20" y1="78" x2="65" y2="78" stroke="#E2E8F0"/>
        <text x="42.5" y="93" text-anchor="middle" font-size="8.5" fill="#94A3B8">independently</text>
        <text x="42.5" y="102" text-anchor="middle" font-size="8.5" fill="#94A3B8">deployable</text>
      </g>
    </g>

    <!-- Column 4: INVESTIGATION -->
    <g transform="translate(700, 390)">
      <text x="105" y="14" text-anchor="middle" font-size="10.5" font-weight="700" fill="#3D6FA8" letter-spacing="1.2">INVESTIGATION</text>
      <line x1="10" y1="22" x2="200" y2="22" stroke="#BCD2EC" stroke-width="1"/>
      <text x="105" y="38" text-anchor="middle" font-size="9.5" fill="#64748B">fraud · liability · SIU</text>
      <g transform="translate(15, 50)">
        <rect width="85" height="105" rx="6" fill="#FFFFFF" stroke="#2C7BE5" stroke-width="1.2"/>
        <circle cx="42.5" cy="32" r="14" fill="#E8F0FA" stroke="#2C7BE5" stroke-width="1"/>
        <path d="M 36 32 L 41 37 L 49 27" fill="none" stroke="#2C7BE5" stroke-width="2" stroke-linecap="round" stroke-linejoin="round"/>
        <text x="42.5" y="68" text-anchor="middle" font-size="10" font-weight="600" fill="#1F3A5F">Agent</text>
        <line x1="20" y1="78" x2="65" y2="78" stroke="#E2E8F0"/>
        <text x="42.5" y="93" text-anchor="middle" font-size="8.5" fill="#94A3B8">independently</text>
        <text x="42.5" y="102" text-anchor="middle" font-size="8.5" fill="#94A3B8">deployable</text>
      </g>
      <g transform="translate(110, 50)">
        <rect width="85" height="105" rx="6" fill="#FFFFFF" stroke="#2C7BE5" stroke-width="1.2"/>
        <circle cx="42.5" cy="32" r="14" fill="#E8F0FA" stroke="#2C7BE5" stroke-width="1"/>
        <path d="M 36 32 L 41 37 L 49 27" fill="none" stroke="#2C7BE5" stroke-width="2" stroke-linecap="round" stroke-linejoin="round"/>
        <text x="42.5" y="68" text-anchor="middle" font-size="10" font-weight="600" fill="#1F3A5F">Agent</text>
        <line x1="20" y1="78" x2="65" y2="78" stroke="#E2E8F0"/>
        <text x="42.5" y="93" text-anchor="middle" font-size="8.5" fill="#94A3B8">independently</text>
        <text x="42.5" y="102" text-anchor="middle" font-size="8.5" fill="#94A3B8">deployable</text>
      </g>
    </g>

    <!-- Column 5: COMPLIANCE -->
    <g transform="translate(910, 390)">
      <text x="105" y="14" text-anchor="middle" font-size="10.5" font-weight="700" fill="#3D6FA8" letter-spacing="1.2">COMPLIANCE</text>
      <line x1="20" y1="22" x2="190" y2="22" stroke="#BCD2EC" stroke-width="1"/>
      <text x="105" y="38" text-anchor="middle" font-size="9.5" fill="#64748B">regulatory · deadlines</text>
      <g transform="translate(15, 50)">
        <rect width="85" height="105" rx="6" fill="#FFFFFF" stroke="#2C7BE5" stroke-width="1.2"/>
        <circle cx="42.5" cy="32" r="14" fill="#E8F0FA" stroke="#2C7BE5" stroke-width="1"/>
        <path d="M 36 32 L 41 37 L 49 27" fill="none" stroke="#2C7BE5" stroke-width="2" stroke-linecap="round" stroke-linejoin="round"/>
        <text x="42.5" y="68" text-anchor="middle" font-size="10" font-weight="600" fill="#1F3A5F">Agent</text>
        <line x1="20" y1="78" x2="65" y2="78" stroke="#E2E8F0"/>
        <text x="42.5" y="93" text-anchor="middle" font-size="8.5" fill="#94A3B8">independently</text>
        <text x="42.5" y="102" text-anchor="middle" font-size="8.5" fill="#94A3B8">deployable</text>
      </g>
      <g transform="translate(110, 50)">
        <rect width="85" height="105" rx="6" fill="#FFFFFF" stroke="#2C7BE5" stroke-width="1.2"/>
        <circle cx="42.5" cy="32" r="14" fill="#E8F0FA" stroke="#2C7BE5" stroke-width="1"/>
        <path d="M 36 32 L 41 37 L 49 27" fill="none" stroke="#2C7BE5" stroke-width="2" stroke-linecap="round" stroke-linejoin="round"/>
        <text x="42.5" y="68" text-anchor="middle" font-size="10" font-weight="600" fill="#1F3A5F">Agent</text>
        <line x1="20" y1="78" x2="65" y2="78" stroke="#E2E8F0"/>
        <text x="42.5" y="93" text-anchor="middle" font-size="8.5" fill="#94A3B8">independently</text>
        <text x="42.5" y="102" text-anchor="middle" font-size="8.5" fill="#94A3B8">deployable</text>
      </g>
    </g>

    <!-- Column 6: RESOLUTION -->
    <g transform="translate(1120, 390)">
      <text x="105" y="14" text-anchor="middle" font-size="10.5" font-weight="700" fill="#3D6FA8" letter-spacing="1.2">RESOLUTION</text>
      <line x1="20" y1="22" x2="190" y2="22" stroke="#BCD2EC" stroke-width="1"/>
      <text x="105" y="38" text-anchor="middle" font-size="9.5" fill="#64748B">reserve · settlement support</text>
      <g transform="translate(15, 50)">
        <rect width="85" height="105" rx="6" fill="#FFFFFF" stroke="#2C7BE5" stroke-width="1.2"/>
        <circle cx="42.5" cy="32" r="14" fill="#E8F0FA" stroke="#2C7BE5" stroke-width="1"/>
        <path d="M 36 32 L 41 37 L 49 27" fill="none" stroke="#2C7BE5" stroke-width="2" stroke-linecap="round" stroke-linejoin="round"/>
        <text x="42.5" y="68" text-anchor="middle" font-size="10" font-weight="600" fill="#1F3A5F">Agent</text>
        <line x1="20" y1="78" x2="65" y2="78" stroke="#E2E8F0"/>
        <text x="42.5" y="93" text-anchor="middle" font-size="8.5" fill="#94A3B8">independently</text>
        <text x="42.5" y="102" text-anchor="middle" font-size="8.5" fill="#94A3B8">deployable</text>
      </g>
      <g transform="translate(110, 50)">
        <rect width="85" height="105" rx="6" fill="#FFFFFF" stroke="#2C7BE5" stroke-width="1.2"/>
        <circle cx="42.5" cy="32" r="14" fill="#E8F0FA" stroke="#2C7BE5" stroke-width="1"/>
        <path d="M 36 32 L 41 37 L 49 27" fill="none" stroke="#2C7BE5" stroke-width="2" stroke-linecap="round" stroke-linejoin="round"/>
        <text x="42.5" y="68" text-anchor="middle" font-size="10" font-weight="600" fill="#1F3A5F">Agent</text>
        <line x1="20" y1="78" x2="65" y2="78" stroke="#E2E8F0"/>
        <text x="42.5" y="93" text-anchor="middle" font-size="8.5" fill="#94A3B8">independently</text>
        <text x="42.5" y="102" text-anchor="middle" font-size="8.5" fill="#94A3B8">deployable</text>
      </g>
    </g>
  </g>

  <!-- Connector: Agents ↔ Integration -->
  <g>
    <line x1="700" y1="572" x2="700" y2="593" stroke="#64748B" stroke-width="1.5" marker-end="url(#arrowDown)" marker-start="url(#arrowUp)"/>
    <text x="710" y="587" font-size="10" fill="#64748B" font-style="italic">every call authenticated &amp; logged</text>
  </g>

  <!-- =================== LAYER 4: INTEGRATION GATEWAY =================== -->
  <g id="layer-integration">
    <rect x="40" y="595" width="1320" height="75" rx="10" fill="#ECEFF3" stroke="#94A3B8" stroke-width="1.5"/>
    <!-- Hatched accent strip showing trust boundary -->
    <rect x="40" y="595" width="1320" height="5" rx="2" fill="#F59E0B"/>

    <circle cx="78" cy="635" r="16" fill="#475569"/>
    <text x="78" y="641" text-anchor="middle" font-size="15" font-weight="700" fill="#FFFFFF">4</text>

    <text x="106" y="625" font-size="17" font-weight="700" fill="#1F3A5F" letter-spacing="0.3">INTEGRATION GATEWAY · Single Audited Boundary</text>
    <text x="106" y="645" font-size="12" fill="#475569">One gateway connects every agent to existing systems. Every interaction is authenticated and logged at this boundary.</text>
    <text x="106" y="661" font-size="11" font-weight="600" fill="#475569">AuthN · AuthZ · Rate-limiting · Schema validation · Immutable audit log → your regulatory audit trail</text>

    <!-- Right-side trust badges -->
    <g transform="translate(1075, 612)">
      <rect width="80" height="46" rx="4" fill="#FFFFFF" stroke="#CBD5E1"/>
      <text x="40" y="20" text-anchor="middle" font-size="10" font-weight="700" fill="#1F3A5F">Auth</text>
      <text x="40" y="35" text-anchor="middle" font-size="9" fill="#64748B">N · Z</text>
    </g>
    <g transform="translate(1165, 612)">
      <rect width="80" height="46" rx="4" fill="#FFFFFF" stroke="#CBD5E1"/>
      <text x="40" y="20" text-anchor="middle" font-size="10" font-weight="700" fill="#1F3A5F">Logged</text>
      <text x="40" y="35" text-anchor="middle" font-size="9" fill="#64748B">immutable</text>
    </g>
    <g transform="translate(1255, 612)">
      <rect width="80" height="46" rx="4" fill="#FFFFFF" stroke="#CBD5E1"/>
      <text x="40" y="20" text-anchor="middle" font-size="10" font-weight="700" fill="#1F3A5F">Audited</text>
      <text x="40" y="35" text-anchor="middle" font-size="9" fill="#64748B">trail</text>
    </g>
  </g>

  <!-- Connector: Integration ↔ Carrier Stack -->
  <g>
    <line x1="700" y1="672" x2="700" y2="693" stroke="#64748B" stroke-width="1.5" marker-end="url(#arrowDown)" marker-start="url(#arrowUp)"/>
    <text x="710" y="687" font-size="10" fill="#64748B" font-style="italic">read / write via existing APIs</text>
  </g>

  <!-- =================== LAYER 5: CARRIER STACK =================== -->
  <g id="layer-carrier">
    <rect x="40" y="695" width="1320" height="155" rx="10" fill="#F7F8FA" stroke="#CBD5E1" stroke-width="1" stroke-dasharray="4,3"/>

    <circle cx="78" cy="727" r="16" fill="#94A3B8"/>
    <text x="78" y="733" text-anchor="middle" font-size="15" font-weight="700" fill="#FFFFFF">5</text>

    <text x="106" y="723" font-size="17" font-weight="700" fill="#475569" letter-spacing="0.3">EXISTING CARRIER STACK</text>
    <text x="106" y="742" font-size="12" fill="#64748B">Sits on top of what you already have. <tspan font-weight="700" fill="#1F3A5F">No CMS replacement required.</tspan> No data migration. No re-platforming.</text>

    <!-- 6 system tiles -->
    <g transform="translate(64, 760)">
      <g>
        <rect x="0" y="0" width="200" height="78" rx="6" fill="#FFFFFF" stroke="#CBD5E1" stroke-width="1"/>
        <text x="100" y="26" text-anchor="middle" font-size="11" font-weight="700" fill="#475569">Policy Administration</text>
        <text x="100" y="44" text-anchor="middle" font-size="10" fill="#94A3B8">PAS · policy of record</text>
        <text x="100" y="60" text-anchor="middle" font-size="9" fill="#94A3B8" font-style="italic">existing system</text>
      </g>
      <g transform="translate(212, 0)">
        <rect x="0" y="0" width="200" height="78" rx="6" fill="#FFFFFF" stroke="#CBD5E1" stroke-width="1"/>
        <text x="100" y="26" text-anchor="middle" font-size="11" font-weight="700" fill="#475569">Claims Management</text>
        <text x="100" y="44" text-anchor="middle" font-size="10" fill="#94A3B8">CMS · system of record</text>
        <text x="100" y="60" text-anchor="middle" font-size="9" fill="#94A3B8" font-style="italic">existing system</text>
      </g>
      <g transform="translate(424, 0)">
        <rect x="0" y="0" width="200" height="78" rx="6" fill="#FFFFFF" stroke="#CBD5E1" stroke-width="1"/>
        <text x="100" y="26" text-anchor="middle" font-size="11" font-weight="700" fill="#475569">Document Store / ECM</text>
        <text x="100" y="44" text-anchor="middle" font-size="10" fill="#94A3B8">unstructured content</text>
        <text x="100" y="60" text-anchor="middle" font-size="9" fill="#94A3B8" font-style="italic">existing system</text>
      </g>
      <g transform="translate(636, 0)">
        <rect x="0" y="0" width="200" height="78" rx="6" fill="#FFFFFF" stroke="#CBD5E1" stroke-width="1"/>
        <text x="100" y="26" text-anchor="middle" font-size="11" font-weight="700" fill="#475569">Fraud / SIU Database</text>
        <text x="100" y="44" text-anchor="middle" font-size="10" fill="#94A3B8">ISO · ClaimSearch · in-house</text>
        <text x="100" y="60" text-anchor="middle" font-size="9" fill="#94A3B8" font-style="italic">existing system</text>
      </g>
      <g transform="translate(848, 0)">
        <rect x="0" y="0" width="200" height="78" rx="6" fill="#FFFFFF" stroke="#CBD5E1" stroke-width="1"/>
        <text x="100" y="26" text-anchor="middle" font-size="11" font-weight="700" fill="#475569">Billing / Financials</text>
        <text x="100" y="44" text-anchor="middle" font-size="10" fill="#94A3B8">payments · reserves GL</text>
        <text x="100" y="60" text-anchor="middle" font-size="9" fill="#94A3B8" font-style="italic">existing system</text>
      </g>
      <g transform="translate(1060, 0)">
        <rect x="0" y="0" width="208" height="78" rx="6" fill="#FFFFFF" stroke="#CBD5E1" stroke-width="1"/>
        <text x="104" y="26" text-anchor="middle" font-size="11" font-weight="700" fill="#475569">Data Warehouse / BI</text>
        <text x="104" y="44" text-anchor="middle" font-size="10" fill="#94A3B8">analytics · reporting</text>
        <text x="104" y="60" text-anchor="middle" font-size="9" fill="#94A3B8" font-style="italic">existing system</text>
      </g>
    </g>
  </g>

  <!-- =================== PLATFORM SERVICES (cross-cutting sidebar) =================== -->
  <g id="layer-platform-services">
    <!-- Outer container -->
    <rect x="1380" y="30" width="220" height="640" rx="10" fill="#FAFBFC" stroke="#CBD5E1" stroke-width="1"/>

    <!-- Header band -->
    <path d="M 1380 40 Q 1380 30 1390 30 L 1590 30 Q 1600 30 1600 40 L 1600 70 L 1380 70 Z" fill="#3D6FA8"/>
    <text x="1490" y="52" text-anchor="middle" font-size="12" font-weight="700" fill="#FFFFFF" letter-spacing="1.2">PLATFORM SERVICES</text>
    <text x="1490" y="64" text-anchor="middle" font-size="9" fill="#C8DAEC" letter-spacing="0.5">cross-cutting · shared by every agent</text>

    <!-- ===== Card 1: RAG ===== -->
    <g transform="translate(1392, 82)">
      <rect width="196" height="140" rx="6" fill="#FFFFFF" stroke="#BCD2EC" stroke-width="1"/>
      <!-- Icon: stacked documents -->
      <g transform="translate(12, 12)">
        <rect x="0" y="3" width="16" height="20" rx="2" fill="#E8F0FA" stroke="#2C7BE5" stroke-width="1.2"/>
        <rect x="4" y="0" width="16" height="20" rx="2" fill="#FFFFFF" stroke="#2C7BE5" stroke-width="1.2"/>
        <line x1="7" y1="6" x2="17" y2="6" stroke="#2C7BE5" stroke-width="1"/>
        <line x1="7" y1="10" x2="17" y2="10" stroke="#2C7BE5" stroke-width="1"/>
        <line x1="7" y1="14" x2="13" y2="14" stroke="#2C7BE5" stroke-width="1"/>
      </g>
      <text x="42" y="22" font-size="12" font-weight="700" fill="#1F3A5F">RAG</text>
      <text x="42" y="34" font-size="9" fill="#64748B">Knowledge retrieval</text>

      <text x="12" y="58" font-size="10" fill="#475569">Indexed corpus of policy</text>
      <text x="12" y="71" font-size="10" fill="#475569">wordings, claims handbooks,</text>
      <text x="12" y="84" font-size="10" fill="#475569">jurisdictional rules &amp; case</text>
      <text x="12" y="97" font-size="10" fill="#475569">precedents.</text>
      <text x="12" y="114" font-size="9" fill="#94A3B8" font-style="italic">vector + keyword hybrid</text>
      <text x="12" y="125" font-size="9" fill="#94A3B8" font-style="italic">citations always preserved</text>

      <text x="184" y="135" text-anchor="end" font-size="9" font-weight="700" fill="#2C7BE5">→ Agents</text>
    </g>

    <!-- ===== Card 2: API Integrations ===== -->
    <g transform="translate(1392, 232)">
      <rect width="196" height="140" rx="6" fill="#FFFFFF" stroke="#BCD2EC" stroke-width="1"/>
      <!-- Icon: connector/plug -->
      <g transform="translate(12, 12)">
        <circle cx="6" cy="11" r="5.5" fill="#E8F0FA" stroke="#2C7BE5" stroke-width="1.2"/>
        <circle cx="6" cy="11" r="2" fill="#2C7BE5"/>
        <line x1="12" y1="11" x2="19" y2="11" stroke="#2C7BE5" stroke-width="1.5"/>
        <rect x="18" y="5" width="6" height="12" rx="1.5" fill="#E8F0FA" stroke="#2C7BE5" stroke-width="1.2"/>
      </g>
      <text x="42" y="22" font-size="12" font-weight="700" fill="#1F3A5F">API Integrations</text>
      <text x="42" y="34" font-size="9" fill="#64748B">Third-party data services</text>

      <text x="12" y="58" font-size="10" fill="#475569">ISO ClaimSearch · vehicle</text>
      <text x="12" y="71" font-size="10" fill="#475569">valuation · weather / CAT</text>
      <text x="12" y="84" font-size="10" fill="#475569">data · geocoding · OFAC ·</text>
      <text x="12" y="97" font-size="10" fill="#475569">repair networks · e-sign.</text>
      <text x="12" y="114" font-size="9" fill="#94A3B8" font-style="italic">brokered via gateway</text>
      <text x="12" y="125" font-size="9" fill="#94A3B8" font-style="italic">retry · rate-limit · circuit-break</text>

      <text x="184" y="135" text-anchor="end" font-size="9" font-weight="700" fill="#2C7BE5">→ Integration Gateway</text>
    </g>

    <!-- ===== Card 3: State & Memory ===== -->
    <g transform="translate(1392, 382)">
      <rect width="196" height="140" rx="6" fill="#FFFFFF" stroke="#BCD2EC" stroke-width="1"/>
      <!-- Icon: cylindrical store -->
      <g transform="translate(12, 12)">
        <ellipse cx="12" cy="4" rx="9" ry="3" fill="#E8F0FA" stroke="#2C7BE5" stroke-width="1.2"/>
        <path d="M 3 4 L 3 18" stroke="#2C7BE5" stroke-width="1.2" fill="none"/>
        <path d="M 21 4 L 21 18" stroke="#2C7BE5" stroke-width="1.2" fill="none"/>
        <path d="M 3 18 Q 3 21 12 21 Q 21 21 21 18" stroke="#2C7BE5" stroke-width="1.2" fill="#E8F0FA"/>
        <path d="M 3 11 Q 3 14 12 14 Q 21 14 21 11" stroke="#2C7BE5" stroke-width="1.2" fill="none"/>
      </g>
      <text x="42" y="22" font-size="12" font-weight="700" fill="#1F3A5F">State &amp; Memory</text>
      <text x="42" y="34" font-size="9" fill="#64748B">Claim context · agent memory</text>

      <text x="12" y="58" font-size="10" fill="#475569">Per-claim context · agent</text>
      <text x="12" y="71" font-size="10" fill="#475569">working memory · intermediate</text>
      <text x="12" y="84" font-size="10" fill="#475569">artifacts · checkpoints &amp;</text>
      <text x="12" y="97" font-size="10" fill="#475569">replayable history.</text>
      <text x="12" y="114" font-size="9" fill="#94A3B8" font-style="italic">durable · resumable</text>
      <text x="12" y="125" font-size="9" fill="#94A3B8" font-style="italic">deterministic replay for audit</text>

      <text x="184" y="135" text-anchor="end" font-size="9" font-weight="700" fill="#2C7BE5">→ Orchestrator + Agents</text>
    </g>

    <!-- ===== Card 4: Monitoring & Analysis ===== -->
    <g transform="translate(1392, 532)">
      <rect width="196" height="130" rx="6" fill="#FFFFFF" stroke="#BCD2EC" stroke-width="1"/>
      <!-- Icon: chart bars -->
      <g transform="translate(12, 12)">
        <rect x="0" y="0" width="22" height="22" rx="2" fill="#E8F0FA" stroke="#2C7BE5" stroke-width="1.2"/>
        <rect x="4" y="14" width="3" height="6" fill="#2C7BE5"/>
        <rect x="9" y="10" width="3" height="10" fill="#2C7BE5"/>
        <rect x="14" y="5" width="3" height="15" fill="#2C7BE5"/>
      </g>
      <text x="42" y="22" font-size="12" font-weight="700" fill="#1F3A5F">Monitoring &amp; Analysis</text>
      <text x="42" y="34" font-size="9" fill="#64748B">Observability · evals · QA</text>

      <text x="12" y="58" font-size="10" fill="#475569">Distributed traces · agent</text>
      <text x="12" y="71" font-size="10" fill="#475569">evals · drift detection · cost</text>
      <text x="12" y="84" font-size="10" fill="#475569">/ latency · accuracy · SLA &amp;</text>
      <text x="12" y="97" font-size="10" fill="#475569">regulatory reporting.</text>
      <text x="12" y="113" font-size="9" fill="#94A3B8" font-style="italic">human-review queue triggers</text>

      <text x="184" y="125" text-anchor="end" font-size="9" font-weight="700" fill="#2C7BE5">→ All Layers</text>
    </g>

    <!-- Subtle dashed connector lines showing each service touches its primary layer -->
    <g stroke="#3D6FA8" stroke-width="0.8" stroke-dasharray="2,3" opacity="0.55" fill="none">
      <!-- RAG → Agents layer (y mid of agents ≈ 442) -->
      <line x1="1380" y1="152" x2="1370" y2="152"/>
      <line x1="1370" y1="152" x2="1370" y2="442"/>
      <line x1="1370" y1="442" x2="1360" y2="442"/>
      <!-- API Integrations → Integration Gateway (y mid ≈ 632) -->
      <line x1="1380" y1="302" x2="1372" y2="302"/>
      <line x1="1372" y1="302" x2="1372" y2="632"/>
      <line x1="1372" y1="632" x2="1360" y2="632"/>
      <!-- State &amp; Memory → Orchestrator + Agents (split feeders) -->
      <line x1="1380" y1="452" x2="1366" y2="452"/>
      <line x1="1366" y1="242" x2="1366" y2="452"/>
      <line x1="1366" y1="242" x2="1360" y2="242"/>
      <line x1="1366" y1="442" x2="1360" y2="442"/>
      <!-- Monitoring → All layers (vertical spine touching every band) -->
      <line x1="1380" y1="597" x2="1368" y2="597"/>
      <line x1="1368" y1="100" x2="1368" y2="632"/>
      <line x1="1368" y1="100" x2="1360" y2="100"/>
      <line x1="1368" y1="242" x2="1360" y2="242"/>
      <line x1="1368" y1="442" x2="1360" y2="442"/>
      <line x1="1368" y1="632" x2="1360" y2="632"/>
    </g>
  </g>
</svg>
